<?xml version="1.0" encoding="UTF-8"?>
<svg id="Layer_1" xmlns="http://www.w3.org/2000/svg" version="1.1" viewBox="0 0 29 29">
  <!-- Generator: Adobe Illustrator 30.1.0, SVG Export Plug-In . SVG Version: 2.1.1 Build 136)  -->
  <defs>
    <style>
      .st0 {
        fill: #d9d9d9;
      }
    </style>
  </defs>
  <path class="st0" d="M14.27,28.04C6.68,28.04.5,21.86.5,14.27S6.68.5,14.27.5s13.77,6.18,13.77,13.77-6.18,13.77-13.77,13.77Z"/>
  <path d="M14.27,1c7.32,0,13.27,5.95,13.27,13.27s-5.95,13.27-13.27,13.27S1,21.59,1,14.27,6.95,1,14.27,1M14.27,0C6.39,0,0,6.39,0,14.27s6.39,14.27,14.27,14.27,14.27-6.39,14.27-14.27S22.15,0,14.27,0h0Z"/>
</svg>