<svg width="32" height="32" viewBox="0 0 32 32" fill="none" xmlns="http://www.w3.org/2000/svg">
<path d="M8.06055 8.83496C8.79406 8.07769 9.67087 7.71768 10.6084 7.88965C11.4629 8.0465 12.1625 8.61236 12.6963 9.20898C13.1682 9.73649 14.184 10.8613 15.084 11.8564C15.4408 12.2509 15.7795 12.6244 16.0576 12.9316C16.4922 12.5135 17.0854 11.9712 17.7451 11.4463C18.4211 10.9085 19.2034 10.3603 19.9805 9.99121C20.7123 9.64367 21.6676 9.34465 22.5645 9.6543C23.1778 9.86618 23.927 10.4217 24.6338 11.0117C25.3837 11.6378 26.2285 12.4262 27.0615 13.2432C30.2928 16.4122 30.2644 21.4955 27.3525 24.8486C25.263 27.2545 22.0403 28.3516 18.917 27.7207L17.7637 27.4873L17.7158 27.4766H17.7119C17.7095 27.476 17.7055 27.4747 17.7012 27.4736C17.6927 27.4714 17.6806 27.4679 17.665 27.4639C17.633 27.4556 17.5858 27.4426 17.5264 27.4268C17.4074 27.3951 17.2364 27.3493 17.0254 27.29C16.6035 27.1714 16.0184 27 15.3662 26.7881C14.0857 26.372 12.4575 25.7722 11.3105 25.0811C10.0328 24.3109 9.39424 23.2174 9.44922 22.0859C9.50135 21.0175 10.1803 20.091 11.1162 19.7217C11.5693 19.543 12.1661 19.4852 12.6855 19.4639C13.0918 19.4472 13.5278 19.4503 13.9502 19.4648C13.4486 18.9109 12.8751 18.2786 12.291 17.6328C10.5767 15.7376 8.74795 13.7121 8.3418 13.2451C7.94488 12.7887 7.42909 12.1494 7.24707 11.3809C7.03661 10.4915 7.30378 9.61638 8.06055 8.83496ZM10.2471 9.85742C10.1153 9.83332 9.88045 9.83073 9.49707 10.2266C9.30018 10.4299 9.22717 10.578 9.19922 10.667C9.17382 10.7481 9.171 10.8242 9.19336 10.9189C9.25097 11.1624 9.45343 11.4759 9.85059 11.9326C10.2396 12.3799 12.0492 14.3847 13.7744 16.292C14.634 17.2423 15.4688 18.1643 16.0889 18.8486C16.3987 19.1906 16.6552 19.4737 16.834 19.6709C16.9232 19.7693 16.9934 19.8468 17.041 19.8994C17.0648 19.9256 17.0834 19.9464 17.0957 19.96C17.1017 19.9666 17.1063 19.9722 17.1094 19.9756L17.1143 19.9805C17.3942 20.2894 17.4538 20.7398 17.2627 21.1104C17.0714 21.4807 16.6698 21.6935 16.2559 21.6445H16.2529C16.2516 21.6443 16.2496 21.6439 16.2471 21.6436C16.2408 21.6428 16.2305 21.6421 16.2178 21.6406C16.1918 21.6377 16.1527 21.6334 16.1025 21.6279C16.0016 21.617 15.8546 21.601 15.6748 21.584C15.3143 21.5499 14.8238 21.5094 14.3018 21.4824C13.777 21.4553 13.2357 21.4437 12.7676 21.4629C12.2643 21.4835 11.9646 21.5372 11.8506 21.582C11.653 21.66 11.4614 21.892 11.4473 22.1836C11.4363 22.4128 11.537 22.8829 12.3418 23.3682C13.2781 23.9325 14.7182 24.4743 15.9844 24.8857C16.6054 25.0875 17.1645 25.251 17.5674 25.3643C17.7684 25.4208 17.9303 25.4647 18.041 25.4941C18.0961 25.5088 18.1387 25.52 18.167 25.5273C18.1762 25.5297 18.1843 25.5316 18.1904 25.5332L19.3135 25.7598C21.7309 26.248 24.2255 25.3993 25.8428 23.5371C28.1179 20.917 28.076 17.0402 25.6602 14.6709C24.8441 13.8706 24.0427 13.1238 23.3516 12.5469C22.6176 11.9342 22.1298 11.6195 21.9111 11.5439C21.7917 11.5028 21.4615 11.5017 20.8379 11.7979C20.2594 12.0726 19.6147 12.5148 18.9912 13.0107C18.3745 13.5014 17.8118 14.0173 17.4023 14.4131C17.1987 14.6099 17.0343 14.7754 16.9219 14.8906C16.8657 14.9482 16.8225 14.9944 16.7939 15.0244C16.78 15.0391 16.7694 15.0505 16.7627 15.0576C16.7595 15.061 16.7563 15.0629 16.7549 15.0645L16.7539 15.0664C16.5631 15.2711 16.2945 15.3867 16.0146 15.3848C15.735 15.3827 15.469 15.2629 15.2812 15.0557H15.2803C15.2799 15.0552 15.279 15.0535 15.2783 15.0527L15.2451 15.0176C15.222 14.9921 15.1891 14.9534 15.1455 14.9053C15.0583 14.809 14.9319 14.6707 14.7783 14.501C14.4707 14.1612 14.0503 13.6964 13.6006 13.1992C12.7018 12.2054 11.6814 11.0754 11.2051 10.543C10.791 10.0801 10.4619 9.89702 10.2471 9.85742ZM10.499 4.46289C12.706 4.46298 14.6816 5.45807 15.999 7.02051C16.355 7.44275 16.3011 8.07369 15.8789 8.42969C15.4567 8.78563 14.8257 8.73179 14.4697 8.30957C13.5162 7.17887 12.0919 6.46298 10.499 6.46289C7.63203 6.46289 5.30859 8.78555 5.30859 11.6494C5.3086 13.4571 6.23322 15.0496 7.64062 15.9795C8.1014 16.2839 8.22828 16.9044 7.92383 17.3652C7.61939 17.8259 6.99884 17.9528 6.53809 17.6484C4.59444 16.3642 3.3086 14.1571 3.30859 11.6494C3.30859 7.67987 6.52857 4.46289 10.499 4.46289Z" fill="black"/>
</svg>
