<svg width="32" height="32" viewBox="0 0 32 32" fill="none" xmlns="http://www.w3.org/2000/svg">
<path d="M14.3193 4.00879C15.8078 4.05035 17.2334 5.02429 17.6572 6.64746C17.6766 6.72183 17.6875 6.79808 17.6875 6.87402C17.6875 7.55237 17.6865 9.36478 17.6865 11.0078C17.6865 11.7868 17.6875 12.528 17.6875 13.0918C18.2619 13.082 19.0112 13.0876 19.8311 13.1436C21.5727 13.2626 23.9113 13.6203 25.4551 14.749C25.6713 14.9073 25.8135 15.1365 25.8525 15.3857C26.1148 17.0645 26.1671 19.4125 26.1396 21.5977C26.0857 25.866 22.4586 29.1491 17.9209 29.4414C14.1204 29.686 10.4664 27.7773 8.67969 24.6143L8.36523 24.0566C8.36313 24.0536 8.36073 24.0502 8.3584 24.0469C8.33567 24.0145 8.30192 23.9667 8.25977 23.9062C8.17551 23.7854 8.05483 23.612 7.91016 23.4014C7.62073 22.9801 7.2325 22.4067 6.83691 21.8027C6.44246 21.2005 6.03372 20.5572 5.70996 19.999C5.54858 19.7208 5.40234 19.4529 5.28711 19.2158C5.18171 18.9989 5.06719 18.7375 5.01855 18.4971C4.87088 17.7658 5.04822 16.9586 5.60938 16.3301C6.18625 15.6841 7.09254 15.3067 8.22656 15.3066C8.92484 15.3067 9.57216 15.5534 10.0947 15.835C10.4213 16.0109 10.7287 16.2198 11.0107 16.4326V6.81445C11.0107 6.78422 11.0125 6.75361 11.0156 6.72363L11.0293 6.63379L11.1094 6.31836C11.5678 4.79083 12.8863 3.969 14.3193 4.00879ZM14.3213 5.92578C13.8592 5.91295 13.2928 6.15514 13.0898 6.97754V18.3613C13.0899 18.5044 13.0908 18.6169 13.0908 18.6934V18.8027C13.0908 18.8052 13.0898 18.8083 13.0898 18.8096V18.8105L13.0908 18.8115C13.0906 19.2221 12.8057 19.5796 12.3838 19.6992C11.962 19.8185 11.4963 19.6735 11.2256 19.3398L11.2236 19.3379C11.2212 19.3349 11.2168 19.3293 11.2109 19.3223C11.1988 19.3077 11.1791 19.2849 11.1533 19.2549C11.1013 19.1945 11.0233 19.1054 10.9238 18.998C10.7232 18.7816 10.4409 18.4967 10.1143 18.2148C9.78402 17.93 9.4312 17.6674 9.08789 17.4824C8.73525 17.2925 8.46911 17.2246 8.29102 17.2246C7.67261 17.2246 7.37366 17.417 7.23145 17.5762C7.07383 17.7528 7.01835 17.9877 7.06152 18.2021C7.06178 18.202 7.08521 18.2831 7.17969 18.4775C7.26655 18.6563 7.38793 18.8795 7.53711 19.1367C7.83494 19.6502 8.21991 20.2594 8.60645 20.8496C8.99171 21.4379 9.37288 21.9982 9.65723 22.4121C9.79905 22.6185 9.91601 22.7886 9.99805 22.9062C10.0391 22.9651 10.072 23.011 10.0938 23.042C10.1045 23.0574 10.1127 23.0694 10.1182 23.0771C10.1209 23.081 10.1227 23.084 10.124 23.0859L10.126 23.0879L10.1787 23.1709L10.5176 23.7705C11.9086 26.233 14.7531 27.7197 17.7119 27.5293C21.2693 27.3002 24.0197 24.7433 24.0605 21.5156C24.0855 19.5313 24.0393 17.5116 23.8516 16.0195C22.8312 15.4449 21.2715 15.1602 19.7412 15.0557C18.9212 14.9997 18.172 14.9987 17.6279 15.0117C17.3569 15.0182 17.1382 15.0279 16.9893 15.0361C16.9149 15.0402 16.8576 15.0443 16.8203 15.0469C16.802 15.0481 16.7878 15.0492 16.7793 15.0498H16.7705V15.0508C16.4756 15.0745 16.179 14.9802 15.957 14.792C15.735 14.6038 15.6084 14.3392 15.6084 14.0654V14.0605C15.6083 14.0578 15.6074 14.0538 15.6074 14.0488C15.6074 14.0376 15.6084 14.0208 15.6084 13.999C15.6084 13.9556 15.6074 13.8914 15.6074 13.8096C15.6074 13.6457 15.6084 13.4098 15.6084 13.123V6.94434C15.3848 6.24604 14.8159 5.9396 14.3213 5.92578ZM22.165 3.19043C22.5842 2.83644 23.2454 2.86638 23.6406 3.25684L26.8379 6.41504C27.2152 6.78787 27.2168 7.36016 26.8418 7.72168L23.7109 10.7402C23.3182 11.1186 22.6578 11.1283 22.2363 10.7617C21.8148 10.3948 21.7918 9.78986 22.1846 9.41113L23.6357 8.01074L20.0146 8.01172C19.4386 8.01172 18.9615 7.58382 18.9502 7.05664C18.9392 6.52957 19.3978 6.10263 19.9736 6.10254L23.7041 6.10156L22.1221 4.53809C21.7273 4.1476 21.7462 3.54459 22.165 3.19043Z" fill="black"/>
</svg>
